<mxfile host="Electron" modified="2024-11-09T08:28:22.623Z" agent="Mozilla/5.0 (Windows NT 10.0; Win64; x64) AppleWebKit/537.36 (KHTML, like Gecko) draw.io/24.6.4 Chrome/124.0.6367.207 Electron/30.0.6 Safari/537.36" etag="mE5oimaQaemU1PGR0Xvu" version="24.6.4" type="device">
  <diagram id="C5RBs43oDa-KdzZeNtuy" name="Page-1">
    <mxGraphModel dx="1062" dy="619" grid="1" gridSize="10" guides="1" tooltips="1" connect="1" arrows="1" fold="1" page="1" pageScale="1" pageWidth="827" pageHeight="1169" math="0" shadow="0">
      <root>
        <mxCell id="WIyWlLk6GJQsqaUBKTNV-0" />
        <mxCell id="WIyWlLk6GJQsqaUBKTNV-1" parent="WIyWlLk6GJQsqaUBKTNV-0" />
        <mxCell id="WIyWlLk6GJQsqaUBKTNV-6" value="Objectives" style="rhombus;whiteSpace=wrap;html=1;shadow=0;fontFamily=Helvetica;fontSize=12;align=center;strokeWidth=1;spacing=6;spacingTop=-4;" parent="WIyWlLk6GJQsqaUBKTNV-1" vertex="1">
          <mxGeometry x="146" y="160" width="100" height="80" as="geometry" />
        </mxCell>
        <mxCell id="lKQN4E6-JQWt0Wdz5t5J-2" value="Research Problems" style="rhombus;whiteSpace=wrap;html=1;shadow=0;fontFamily=Helvetica;fontSize=12;align=center;strokeWidth=1;spacing=6;spacingTop=-4;" parent="WIyWlLk6GJQsqaUBKTNV-1" vertex="1">
          <mxGeometry x="260" y="160" width="100" height="80" as="geometry" />
        </mxCell>
        <mxCell id="bEhqceevYVFsubJ2CwOm-1" style="edgeStyle=orthogonalEdgeStyle;rounded=0;orthogonalLoop=1;jettySize=auto;html=1;entryX=0;entryY=0.5;entryDx=0;entryDy=0;fillColor=#a20025;strokeColor=#6F0000;strokeWidth=2;" edge="1" parent="WIyWlLk6GJQsqaUBKTNV-1" source="WIyWlLk6GJQsqaUBKTNV-3" target="bEhqceevYVFsubJ2CwOm-0">
          <mxGeometry relative="1" as="geometry" />
        </mxCell>
        <mxCell id="bEhqceevYVFsubJ2CwOm-8" style="edgeStyle=orthogonalEdgeStyle;rounded=0;orthogonalLoop=1;jettySize=auto;html=1;entryX=0.5;entryY=0;entryDx=0;entryDy=0;dashed=1;" edge="1" parent="WIyWlLk6GJQsqaUBKTNV-1" source="WIyWlLk6GJQsqaUBKTNV-3" target="lKQN4E6-JQWt0Wdz5t5J-2">
          <mxGeometry relative="1" as="geometry">
            <Array as="points">
              <mxPoint x="235" y="130" />
              <mxPoint x="310" y="130" />
            </Array>
          </mxGeometry>
        </mxCell>
        <mxCell id="bEhqceevYVFsubJ2CwOm-9" style="edgeStyle=orthogonalEdgeStyle;rounded=0;orthogonalLoop=1;jettySize=auto;html=1;entryX=0.5;entryY=0;entryDx=0;entryDy=0;dashed=1;" edge="1" parent="WIyWlLk6GJQsqaUBKTNV-1" source="WIyWlLk6GJQsqaUBKTNV-3" target="WIyWlLk6GJQsqaUBKTNV-6">
          <mxGeometry relative="1" as="geometry">
            <Array as="points">
              <mxPoint x="235" y="130" />
              <mxPoint x="196" y="130" />
            </Array>
          </mxGeometry>
        </mxCell>
        <mxCell id="bEhqceevYVFsubJ2CwOm-125" style="edgeStyle=orthogonalEdgeStyle;rounded=0;orthogonalLoop=1;jettySize=auto;html=1;entryX=0.5;entryY=0;entryDx=0;entryDy=0;dashed=1;" edge="1" parent="WIyWlLk6GJQsqaUBKTNV-1" source="WIyWlLk6GJQsqaUBKTNV-3" target="bEhqceevYVFsubJ2CwOm-124">
          <mxGeometry relative="1" as="geometry">
            <Array as="points">
              <mxPoint x="235" y="130" />
              <mxPoint x="80" y="130" />
            </Array>
          </mxGeometry>
        </mxCell>
        <mxCell id="WIyWlLk6GJQsqaUBKTNV-3" value="Determe topic research,&amp;nbsp;&lt;span style=&quot;background-color: initial;&quot;&gt;objectives and&lt;/span&gt;&lt;div&gt;research problem&lt;/div&gt;" style="rounded=1;whiteSpace=wrap;html=1;fontSize=12;glass=0;strokeWidth=1;shadow=0;fillColor=#008a00;fontStyle=1;align=center;fontColor=#ffffff;strokeColor=#005700;" parent="WIyWlLk6GJQsqaUBKTNV-1" vertex="1">
          <mxGeometry x="150" y="50" width="170" height="60" as="geometry" />
        </mxCell>
        <mxCell id="bEhqceevYVFsubJ2CwOm-5" style="edgeStyle=orthogonalEdgeStyle;rounded=0;orthogonalLoop=1;jettySize=auto;html=1;entryX=0.5;entryY=0;entryDx=0;entryDy=0;dashed=1;" edge="1" parent="WIyWlLk6GJQsqaUBKTNV-1" source="bEhqceevYVFsubJ2CwOm-0" target="bEhqceevYVFsubJ2CwOm-4">
          <mxGeometry relative="1" as="geometry" />
        </mxCell>
        <mxCell id="bEhqceevYVFsubJ2CwOm-6" style="edgeStyle=orthogonalEdgeStyle;rounded=0;orthogonalLoop=1;jettySize=auto;html=1;entryX=0.5;entryY=0;entryDx=0;entryDy=0;dashed=1;" edge="1" parent="WIyWlLk6GJQsqaUBKTNV-1" source="bEhqceevYVFsubJ2CwOm-0" target="bEhqceevYVFsubJ2CwOm-3">
          <mxGeometry relative="1" as="geometry" />
        </mxCell>
        <mxCell id="bEhqceevYVFsubJ2CwOm-0" value="Study relevant literature reviews" style="rounded=1;whiteSpace=wrap;html=1;fontSize=12;glass=0;strokeWidth=1;shadow=0;fillColor=#1ba1e2;fontStyle=1;align=center;fontColor=#ffffff;strokeColor=#006EAF;" vertex="1" parent="WIyWlLk6GJQsqaUBKTNV-1">
          <mxGeometry x="480" y="50" width="180" height="60" as="geometry" />
        </mxCell>
        <mxCell id="bEhqceevYVFsubJ2CwOm-3" value="&lt;div&gt;Khmer&lt;/div&gt;&lt;div&gt;Literature Reviews&lt;/div&gt;" style="rhombus;whiteSpace=wrap;html=1;shadow=0;fontFamily=Helvetica;fontSize=12;align=center;strokeWidth=1;spacing=6;spacingTop=-4;" vertex="1" parent="WIyWlLk6GJQsqaUBKTNV-1">
          <mxGeometry x="444" y="160" width="100" height="80" as="geometry" />
        </mxCell>
        <mxCell id="bEhqceevYVFsubJ2CwOm-4" value="English&lt;div&gt;Literature Reviews&lt;/div&gt;" style="rhombus;whiteSpace=wrap;html=1;shadow=0;fontFamily=Helvetica;fontSize=12;align=center;strokeWidth=1;spacing=6;spacingTop=-4;" vertex="1" parent="WIyWlLk6GJQsqaUBKTNV-1">
          <mxGeometry x="590" y="160" width="100" height="80" as="geometry" />
        </mxCell>
        <mxCell id="bEhqceevYVFsubJ2CwOm-11" style="edgeStyle=orthogonalEdgeStyle;rounded=0;orthogonalLoop=1;jettySize=auto;html=1;entryX=0.5;entryY=0;entryDx=0;entryDy=0;dashed=1;" edge="1" parent="WIyWlLk6GJQsqaUBKTNV-1" source="bEhqceevYVFsubJ2CwOm-13" target="bEhqceevYVFsubJ2CwOm-15">
          <mxGeometry relative="1" as="geometry" />
        </mxCell>
        <mxCell id="bEhqceevYVFsubJ2CwOm-12" style="edgeStyle=orthogonalEdgeStyle;rounded=0;orthogonalLoop=1;jettySize=auto;html=1;entryX=0.5;entryY=0;entryDx=0;entryDy=0;dashed=1;" edge="1" parent="WIyWlLk6GJQsqaUBKTNV-1" source="bEhqceevYVFsubJ2CwOm-13" target="bEhqceevYVFsubJ2CwOm-14">
          <mxGeometry relative="1" as="geometry" />
        </mxCell>
        <mxCell id="bEhqceevYVFsubJ2CwOm-30" style="edgeStyle=orthogonalEdgeStyle;rounded=0;orthogonalLoop=1;jettySize=auto;html=1;entryX=0;entryY=0.5;entryDx=0;entryDy=0;fillColor=#a20025;strokeColor=#6F0000;strokeWidth=2;" edge="1" parent="WIyWlLk6GJQsqaUBKTNV-1" source="bEhqceevYVFsubJ2CwOm-13" target="bEhqceevYVFsubJ2CwOm-27">
          <mxGeometry relative="1" as="geometry" />
        </mxCell>
        <mxCell id="bEhqceevYVFsubJ2CwOm-13" value="Data Collection" style="rounded=1;whiteSpace=wrap;html=1;fontSize=12;glass=0;strokeWidth=1;shadow=0;fillColor=#d80073;fontStyle=1;align=center;fontColor=#ffffff;strokeColor=#A50040;" vertex="1" parent="WIyWlLk6GJQsqaUBKTNV-1">
          <mxGeometry x="146" y="300" width="180" height="60" as="geometry" />
        </mxCell>
        <mxCell id="bEhqceevYVFsubJ2CwOm-14" value="Web&amp;nbsp;&lt;div&gt;Scrapping&lt;/div&gt;" style="rhombus;whiteSpace=wrap;html=1;shadow=0;fontFamily=Helvetica;fontSize=12;align=center;strokeWidth=1;spacing=6;spacingTop=-4;" vertex="1" parent="WIyWlLk6GJQsqaUBKTNV-1">
          <mxGeometry x="110" y="420" width="100" height="70" as="geometry" />
        </mxCell>
        <mxCell id="bEhqceevYVFsubJ2CwOm-15" value="Document&lt;div&gt;Scrapping&lt;/div&gt;" style="rhombus;whiteSpace=wrap;html=1;shadow=0;fontFamily=Helvetica;fontSize=12;align=center;strokeWidth=1;spacing=6;spacingTop=-4;" vertex="1" parent="WIyWlLk6GJQsqaUBKTNV-1">
          <mxGeometry x="256" y="420" width="100" height="70" as="geometry" />
        </mxCell>
        <mxCell id="bEhqceevYVFsubJ2CwOm-17" value="(2)" style="text;html=1;align=center;verticalAlign=middle;resizable=0;points=[];autosize=1;strokeColor=none;fillColor=none;" vertex="1" parent="WIyWlLk6GJQsqaUBKTNV-1">
          <mxGeometry x="720" y="160" width="40" height="30" as="geometry" />
        </mxCell>
        <mxCell id="bEhqceevYVFsubJ2CwOm-18" value="(1)" style="text;html=1;align=center;verticalAlign=middle;resizable=0;points=[];autosize=1;strokeColor=none;fillColor=none;" vertex="1" parent="WIyWlLk6GJQsqaUBKTNV-1">
          <mxGeometry x="380" y="48" width="40" height="30" as="geometry" />
        </mxCell>
        <mxCell id="bEhqceevYVFsubJ2CwOm-19" style="edgeStyle=orthogonalEdgeStyle;rounded=0;orthogonalLoop=1;jettySize=auto;html=1;entryX=0.5;entryY=0;entryDx=0;entryDy=0;fillColor=#a20025;strokeColor=#6F0000;strokeWidth=2;" edge="1" parent="WIyWlLk6GJQsqaUBKTNV-1" source="bEhqceevYVFsubJ2CwOm-0" target="bEhqceevYVFsubJ2CwOm-13">
          <mxGeometry relative="1" as="geometry">
            <Array as="points">
              <mxPoint x="760" y="80" />
              <mxPoint x="760" y="260" />
              <mxPoint x="236" y="260" />
            </Array>
          </mxGeometry>
        </mxCell>
        <mxCell id="bEhqceevYVFsubJ2CwOm-25" style="edgeStyle=orthogonalEdgeStyle;rounded=0;orthogonalLoop=1;jettySize=auto;html=1;entryX=0.5;entryY=0;entryDx=0;entryDy=0;dashed=1;" edge="1" parent="WIyWlLk6GJQsqaUBKTNV-1" source="bEhqceevYVFsubJ2CwOm-27" target="bEhqceevYVFsubJ2CwOm-29">
          <mxGeometry relative="1" as="geometry" />
        </mxCell>
        <mxCell id="bEhqceevYVFsubJ2CwOm-26" style="edgeStyle=orthogonalEdgeStyle;rounded=0;orthogonalLoop=1;jettySize=auto;html=1;entryX=0.5;entryY=0;entryDx=0;entryDy=0;dashed=1;" edge="1" parent="WIyWlLk6GJQsqaUBKTNV-1" source="bEhqceevYVFsubJ2CwOm-27" target="bEhqceevYVFsubJ2CwOm-28">
          <mxGeometry relative="1" as="geometry" />
        </mxCell>
        <mxCell id="bEhqceevYVFsubJ2CwOm-32" style="edgeStyle=orthogonalEdgeStyle;rounded=0;orthogonalLoop=1;jettySize=auto;html=1;entryX=0.5;entryY=0;entryDx=0;entryDy=0;dashed=1;" edge="1" parent="WIyWlLk6GJQsqaUBKTNV-1" source="bEhqceevYVFsubJ2CwOm-27" target="bEhqceevYVFsubJ2CwOm-31">
          <mxGeometry relative="1" as="geometry" />
        </mxCell>
        <mxCell id="bEhqceevYVFsubJ2CwOm-33" style="edgeStyle=orthogonalEdgeStyle;rounded=0;orthogonalLoop=1;jettySize=auto;html=1;strokeWidth=2;fillColor=#a0522d;strokeColor=#6D1F00;entryX=0.5;entryY=0;entryDx=0;entryDy=0;" edge="1" parent="WIyWlLk6GJQsqaUBKTNV-1" target="bEhqceevYVFsubJ2CwOm-37">
          <mxGeometry relative="1" as="geometry">
            <mxPoint x="400" y="508" as="targetPoint" />
            <mxPoint x="663" y="318" as="sourcePoint" />
            <Array as="points">
              <mxPoint x="760" y="318" />
              <mxPoint x="760" y="508" />
              <mxPoint x="373" y="508" />
            </Array>
          </mxGeometry>
        </mxCell>
        <mxCell id="bEhqceevYVFsubJ2CwOm-27" value="Data Cleaning" style="rounded=1;whiteSpace=wrap;html=1;fontSize=12;glass=0;strokeWidth=1;shadow=0;fillColor=#0050ef;fontStyle=1;align=center;fontColor=#ffffff;strokeColor=#001DBC;" vertex="1" parent="WIyWlLk6GJQsqaUBKTNV-1">
          <mxGeometry x="483" y="300" width="180" height="60" as="geometry" />
        </mxCell>
        <mxCell id="bEhqceevYVFsubJ2CwOm-28" value="Handle&lt;div&gt;missing&lt;/div&gt;&lt;div&gt;value&lt;/div&gt;" style="rhombus;whiteSpace=wrap;html=1;shadow=0;fontFamily=Helvetica;fontSize=12;align=center;strokeWidth=1;spacing=6;spacingTop=-4;" vertex="1" parent="WIyWlLk6GJQsqaUBKTNV-1">
          <mxGeometry x="400" y="420" width="100" height="70" as="geometry" />
        </mxCell>
        <mxCell id="bEhqceevYVFsubJ2CwOm-29" value="Detect&amp;nbsp;&lt;div&gt;duplicate&amp;nbsp;&lt;/div&gt;&lt;div&gt;value&lt;/div&gt;" style="rhombus;whiteSpace=wrap;html=1;shadow=0;fontFamily=Helvetica;fontSize=12;align=center;strokeWidth=1;spacing=6;spacingTop=-4;" vertex="1" parent="WIyWlLk6GJQsqaUBKTNV-1">
          <mxGeometry x="510" y="420" width="100" height="70" as="geometry" />
        </mxCell>
        <mxCell id="bEhqceevYVFsubJ2CwOm-31" value="Standardize&amp;nbsp;&lt;div&gt;data&amp;nbsp;&lt;span style=&quot;background-color: initial;&quot;&gt;format&lt;/span&gt;&lt;/div&gt;" style="rhombus;whiteSpace=wrap;html=1;shadow=0;fontFamily=Helvetica;fontSize=12;align=center;strokeWidth=1;spacing=6;spacingTop=-4;" vertex="1" parent="WIyWlLk6GJQsqaUBKTNV-1">
          <mxGeometry x="620" y="420" width="100" height="70" as="geometry" />
        </mxCell>
        <mxCell id="bEhqceevYVFsubJ2CwOm-34" style="edgeStyle=orthogonalEdgeStyle;rounded=0;orthogonalLoop=1;jettySize=auto;html=1;entryX=0.5;entryY=0;entryDx=0;entryDy=0;dashed=1;" edge="1" parent="WIyWlLk6GJQsqaUBKTNV-1" source="bEhqceevYVFsubJ2CwOm-37" target="bEhqceevYVFsubJ2CwOm-39">
          <mxGeometry relative="1" as="geometry" />
        </mxCell>
        <mxCell id="bEhqceevYVFsubJ2CwOm-35" style="edgeStyle=orthogonalEdgeStyle;rounded=0;orthogonalLoop=1;jettySize=auto;html=1;entryX=0.5;entryY=0;entryDx=0;entryDy=0;dashed=1;" edge="1" parent="WIyWlLk6GJQsqaUBKTNV-1" source="bEhqceevYVFsubJ2CwOm-37" target="bEhqceevYVFsubJ2CwOm-38">
          <mxGeometry relative="1" as="geometry">
            <Array as="points">
              <mxPoint x="373" y="630" />
              <mxPoint x="160" y="630" />
            </Array>
          </mxGeometry>
        </mxCell>
        <mxCell id="bEhqceevYVFsubJ2CwOm-36" style="edgeStyle=orthogonalEdgeStyle;rounded=0;orthogonalLoop=1;jettySize=auto;html=1;entryX=0.5;entryY=0;entryDx=0;entryDy=0;dashed=1;" edge="1" parent="WIyWlLk6GJQsqaUBKTNV-1" source="bEhqceevYVFsubJ2CwOm-37" target="bEhqceevYVFsubJ2CwOm-40">
          <mxGeometry relative="1" as="geometry" />
        </mxCell>
        <mxCell id="bEhqceevYVFsubJ2CwOm-44" style="edgeStyle=orthogonalEdgeStyle;rounded=0;orthogonalLoop=1;jettySize=auto;html=1;entryX=0.5;entryY=0;entryDx=0;entryDy=0;dashed=1;" edge="1" parent="WIyWlLk6GJQsqaUBKTNV-1" source="bEhqceevYVFsubJ2CwOm-37" target="bEhqceevYVFsubJ2CwOm-43">
          <mxGeometry relative="1" as="geometry">
            <Array as="points">
              <mxPoint x="373" y="630" />
              <mxPoint x="620" y="630" />
            </Array>
          </mxGeometry>
        </mxCell>
        <mxCell id="bEhqceevYVFsubJ2CwOm-91" style="edgeStyle=orthogonalEdgeStyle;rounded=0;orthogonalLoop=1;jettySize=auto;html=1;entryX=0.5;entryY=0;entryDx=0;entryDy=0;fillColor=#a20025;strokeColor=#6F0000;strokeWidth=2;" edge="1" parent="WIyWlLk6GJQsqaUBKTNV-1" source="bEhqceevYVFsubJ2CwOm-37" target="bEhqceevYVFsubJ2CwOm-83">
          <mxGeometry relative="1" as="geometry">
            <Array as="points">
              <mxPoint x="760" y="570" />
              <mxPoint x="760" y="740" />
              <mxPoint x="383" y="740" />
            </Array>
          </mxGeometry>
        </mxCell>
        <mxCell id="bEhqceevYVFsubJ2CwOm-37" value="Data Transformation" style="rounded=1;whiteSpace=wrap;html=1;fontSize=12;glass=0;strokeWidth=1;shadow=0;fillColor=#e51400;fontStyle=1;align=center;fontColor=#ffffff;strokeColor=#B20000;" vertex="1" parent="WIyWlLk6GJQsqaUBKTNV-1">
          <mxGeometry x="283" y="540" width="180" height="60" as="geometry" />
        </mxCell>
        <mxCell id="bEhqceevYVFsubJ2CwOm-38" value="Feature&amp;nbsp;&lt;div&gt;Scaling&lt;/div&gt;" style="rhombus;whiteSpace=wrap;html=1;shadow=0;fontFamily=Helvetica;fontSize=12;align=center;strokeWidth=1;spacing=6;spacingTop=-4;" vertex="1" parent="WIyWlLk6GJQsqaUBKTNV-1">
          <mxGeometry x="110" y="660" width="100" height="70" as="geometry" />
        </mxCell>
        <mxCell id="bEhqceevYVFsubJ2CwOm-39" value="Feature Normalization" style="rhombus;whiteSpace=wrap;html=1;shadow=0;fontFamily=Helvetica;fontSize=12;align=center;strokeWidth=1;spacing=6;spacingTop=-4;" vertex="1" parent="WIyWlLk6GJQsqaUBKTNV-1">
          <mxGeometry x="260" y="660" width="100" height="70" as="geometry" />
        </mxCell>
        <mxCell id="bEhqceevYVFsubJ2CwOm-40" value="Feature&lt;div&gt;Encoding&lt;/div&gt;" style="rhombus;whiteSpace=wrap;html=1;shadow=0;fontFamily=Helvetica;fontSize=12;align=center;strokeWidth=1;spacing=6;spacingTop=-4;" vertex="1" parent="WIyWlLk6GJQsqaUBKTNV-1">
          <mxGeometry x="410" y="660" width="100" height="70" as="geometry" />
        </mxCell>
        <mxCell id="bEhqceevYVFsubJ2CwOm-41" value="(3)" style="text;html=1;align=center;verticalAlign=middle;resizable=0;points=[];autosize=1;strokeColor=none;fillColor=none;" vertex="1" parent="WIyWlLk6GJQsqaUBKTNV-1">
          <mxGeometry x="380" y="298" width="40" height="30" as="geometry" />
        </mxCell>
        <mxCell id="bEhqceevYVFsubJ2CwOm-42" value="(4)" style="text;html=1;align=center;verticalAlign=middle;resizable=0;points=[];autosize=1;strokeColor=none;fillColor=none;" vertex="1" parent="WIyWlLk6GJQsqaUBKTNV-1">
          <mxGeometry x="720" y="408" width="40" height="30" as="geometry" />
        </mxCell>
        <mxCell id="bEhqceevYVFsubJ2CwOm-43" value="Feature&lt;div&gt;Selection&lt;/div&gt;" style="rhombus;whiteSpace=wrap;html=1;shadow=0;fontFamily=Helvetica;fontSize=12;align=center;strokeWidth=1;spacing=6;spacingTop=-4;" vertex="1" parent="WIyWlLk6GJQsqaUBKTNV-1">
          <mxGeometry x="570" y="660" width="100" height="70" as="geometry" />
        </mxCell>
        <mxCell id="bEhqceevYVFsubJ2CwOm-45" style="edgeStyle=orthogonalEdgeStyle;rounded=0;orthogonalLoop=1;jettySize=auto;html=1;entryX=0.5;entryY=0;entryDx=0;entryDy=0;dashed=1;" edge="1" parent="WIyWlLk6GJQsqaUBKTNV-1" source="bEhqceevYVFsubJ2CwOm-49" target="bEhqceevYVFsubJ2CwOm-51">
          <mxGeometry relative="1" as="geometry">
            <Array as="points">
              <mxPoint x="383" y="1080" />
              <mxPoint x="206" y="1080" />
            </Array>
          </mxGeometry>
        </mxCell>
        <mxCell id="bEhqceevYVFsubJ2CwOm-46" style="edgeStyle=orthogonalEdgeStyle;rounded=0;orthogonalLoop=1;jettySize=auto;html=1;entryX=0.5;entryY=0;entryDx=0;entryDy=0;dashed=1;" edge="1" parent="WIyWlLk6GJQsqaUBKTNV-1" source="bEhqceevYVFsubJ2CwOm-49" target="bEhqceevYVFsubJ2CwOm-50">
          <mxGeometry relative="1" as="geometry">
            <Array as="points">
              <mxPoint x="383" y="1080" />
              <mxPoint x="90" y="1080" />
            </Array>
          </mxGeometry>
        </mxCell>
        <mxCell id="bEhqceevYVFsubJ2CwOm-47" style="edgeStyle=orthogonalEdgeStyle;rounded=0;orthogonalLoop=1;jettySize=auto;html=1;entryX=0.5;entryY=0;entryDx=0;entryDy=0;dashed=1;" edge="1" parent="WIyWlLk6GJQsqaUBKTNV-1" source="bEhqceevYVFsubJ2CwOm-49" target="bEhqceevYVFsubJ2CwOm-52">
          <mxGeometry relative="1" as="geometry">
            <Array as="points">
              <mxPoint x="383" y="1080" />
              <mxPoint x="320" y="1080" />
            </Array>
          </mxGeometry>
        </mxCell>
        <mxCell id="bEhqceevYVFsubJ2CwOm-48" style="edgeStyle=orthogonalEdgeStyle;rounded=0;orthogonalLoop=1;jettySize=auto;html=1;entryX=0.5;entryY=0;entryDx=0;entryDy=0;dashed=1;" edge="1" parent="WIyWlLk6GJQsqaUBKTNV-1" source="bEhqceevYVFsubJ2CwOm-49" target="bEhqceevYVFsubJ2CwOm-53">
          <mxGeometry relative="1" as="geometry">
            <Array as="points">
              <mxPoint x="383" y="1080" />
              <mxPoint x="443" y="1080" />
            </Array>
          </mxGeometry>
        </mxCell>
        <mxCell id="bEhqceevYVFsubJ2CwOm-57" style="edgeStyle=orthogonalEdgeStyle;rounded=0;orthogonalLoop=1;jettySize=auto;html=1;entryX=0.5;entryY=0;entryDx=0;entryDy=0;dashed=1;" edge="1" parent="WIyWlLk6GJQsqaUBKTNV-1" source="bEhqceevYVFsubJ2CwOm-49" target="bEhqceevYVFsubJ2CwOm-55">
          <mxGeometry relative="1" as="geometry">
            <Array as="points">
              <mxPoint x="383" y="1080" />
              <mxPoint x="560" y="1080" />
            </Array>
          </mxGeometry>
        </mxCell>
        <mxCell id="bEhqceevYVFsubJ2CwOm-58" style="edgeStyle=orthogonalEdgeStyle;rounded=0;orthogonalLoop=1;jettySize=auto;html=1;entryX=0.5;entryY=0;entryDx=0;entryDy=0;dashed=1;" edge="1" parent="WIyWlLk6GJQsqaUBKTNV-1" source="bEhqceevYVFsubJ2CwOm-49" target="bEhqceevYVFsubJ2CwOm-56">
          <mxGeometry relative="1" as="geometry">
            <Array as="points">
              <mxPoint x="383" y="1080" />
              <mxPoint x="680" y="1080" />
            </Array>
          </mxGeometry>
        </mxCell>
        <mxCell id="bEhqceevYVFsubJ2CwOm-107" style="edgeStyle=orthogonalEdgeStyle;rounded=0;orthogonalLoop=1;jettySize=auto;html=1;entryX=0.5;entryY=0;entryDx=0;entryDy=0;strokeWidth=2;fillColor=#a20025;strokeColor=#6F0000;" edge="1" parent="WIyWlLk6GJQsqaUBKTNV-1" source="bEhqceevYVFsubJ2CwOm-49" target="bEhqceevYVFsubJ2CwOm-100">
          <mxGeometry relative="1" as="geometry">
            <Array as="points">
              <mxPoint x="760" y="1020" />
              <mxPoint x="760" y="1220" />
              <mxPoint x="383" y="1220" />
            </Array>
          </mxGeometry>
        </mxCell>
        <mxCell id="bEhqceevYVFsubJ2CwOm-49" value="Model Building and&amp;nbsp;&lt;div&gt;Evaluation&lt;/div&gt;" style="rounded=1;whiteSpace=wrap;html=1;fontSize=12;glass=0;strokeWidth=1;shadow=0;fillColor=#60a917;fontStyle=1;align=center;fontColor=#ffffff;strokeColor=#2D7600;" vertex="1" parent="WIyWlLk6GJQsqaUBKTNV-1">
          <mxGeometry x="293" y="990" width="180" height="60" as="geometry" />
        </mxCell>
        <mxCell id="bEhqceevYVFsubJ2CwOm-50" value="Select&amp;nbsp;&lt;div&gt;Model&lt;div&gt;Type&lt;/div&gt;&lt;/div&gt;" style="rhombus;whiteSpace=wrap;html=1;shadow=0;fontFamily=Helvetica;fontSize=12;align=center;strokeWidth=1;spacing=6;spacingTop=-4;" vertex="1" parent="WIyWlLk6GJQsqaUBKTNV-1">
          <mxGeometry x="40" y="1099" width="100" height="70" as="geometry" />
        </mxCell>
        <mxCell id="bEhqceevYVFsubJ2CwOm-51" value="Split Dataset" style="rhombus;whiteSpace=wrap;html=1;shadow=0;fontFamily=Helvetica;fontSize=12;align=center;strokeWidth=1;spacing=6;spacingTop=-4;" vertex="1" parent="WIyWlLk6GJQsqaUBKTNV-1">
          <mxGeometry x="156" y="1099" width="100" height="70" as="geometry" />
        </mxCell>
        <mxCell id="bEhqceevYVFsubJ2CwOm-52" value="Train Model" style="rhombus;whiteSpace=wrap;html=1;shadow=0;fontFamily=Helvetica;fontSize=12;align=center;strokeWidth=1;spacing=6;spacingTop=-4;" vertex="1" parent="WIyWlLk6GJQsqaUBKTNV-1">
          <mxGeometry x="270" y="1099" width="100" height="70" as="geometry" />
        </mxCell>
        <mxCell id="bEhqceevYVFsubJ2CwOm-53" value="Hyper-parameter&lt;div&gt;Tuning&lt;/div&gt;" style="rhombus;whiteSpace=wrap;html=1;shadow=0;fontFamily=Helvetica;fontSize=12;align=center;strokeWidth=1;spacing=6;spacingTop=-4;" vertex="1" parent="WIyWlLk6GJQsqaUBKTNV-1">
          <mxGeometry x="393" y="1099" width="100" height="70" as="geometry" />
        </mxCell>
        <mxCell id="bEhqceevYVFsubJ2CwOm-55" value="Model Evaluation" style="rhombus;whiteSpace=wrap;html=1;shadow=0;fontFamily=Helvetica;fontSize=12;align=center;strokeWidth=1;spacing=6;spacingTop=-4;" vertex="1" parent="WIyWlLk6GJQsqaUBKTNV-1">
          <mxGeometry x="510" y="1099" width="100" height="70" as="geometry" />
        </mxCell>
        <mxCell id="bEhqceevYVFsubJ2CwOm-56" value="Model Evaluation" style="rhombus;whiteSpace=wrap;html=1;shadow=0;fontFamily=Helvetica;fontSize=12;align=center;strokeWidth=1;spacing=6;spacingTop=-4;" vertex="1" parent="WIyWlLk6GJQsqaUBKTNV-1">
          <mxGeometry x="630" y="1099" width="100" height="70" as="geometry" />
        </mxCell>
        <mxCell id="bEhqceevYVFsubJ2CwOm-78" style="edgeStyle=orthogonalEdgeStyle;rounded=0;orthogonalLoop=1;jettySize=auto;html=1;entryX=0.5;entryY=0;entryDx=0;entryDy=0;dashed=1;" edge="1" parent="WIyWlLk6GJQsqaUBKTNV-1" source="bEhqceevYVFsubJ2CwOm-83" target="bEhqceevYVFsubJ2CwOm-84">
          <mxGeometry relative="1" as="geometry">
            <Array as="points">
              <mxPoint x="383" y="850" />
              <mxPoint x="260" y="850" />
            </Array>
          </mxGeometry>
        </mxCell>
        <mxCell id="bEhqceevYVFsubJ2CwOm-79" style="edgeStyle=orthogonalEdgeStyle;rounded=0;orthogonalLoop=1;jettySize=auto;html=1;entryX=0.5;entryY=0;entryDx=0;entryDy=0;dashed=1;" edge="1" parent="WIyWlLk6GJQsqaUBKTNV-1" source="bEhqceevYVFsubJ2CwOm-83" target="bEhqceevYVFsubJ2CwOm-86">
          <mxGeometry relative="1" as="geometry">
            <Array as="points">
              <mxPoint x="383" y="850" />
              <mxPoint x="513" y="850" />
            </Array>
          </mxGeometry>
        </mxCell>
        <mxCell id="bEhqceevYVFsubJ2CwOm-90" style="edgeStyle=orthogonalEdgeStyle;rounded=0;orthogonalLoop=1;jettySize=auto;html=1;entryX=0.5;entryY=0;entryDx=0;entryDy=0;strokeWidth=2;fillColor=#a20025;strokeColor=#6F0000;" edge="1" parent="WIyWlLk6GJQsqaUBKTNV-1" source="bEhqceevYVFsubJ2CwOm-83" target="bEhqceevYVFsubJ2CwOm-49">
          <mxGeometry relative="1" as="geometry">
            <Array as="points">
              <mxPoint x="760" y="790" />
              <mxPoint x="760" y="970" />
              <mxPoint x="383" y="970" />
            </Array>
          </mxGeometry>
        </mxCell>
        <mxCell id="bEhqceevYVFsubJ2CwOm-83" value="Data Visualization" style="rounded=1;whiteSpace=wrap;html=1;fontSize=12;glass=0;strokeWidth=1;shadow=0;fillColor=#a0522d;fontStyle=1;align=center;fontColor=#ffffff;strokeColor=#6D1F00;" vertex="1" parent="WIyWlLk6GJQsqaUBKTNV-1">
          <mxGeometry x="293" y="760" width="180" height="60" as="geometry" />
        </mxCell>
        <mxCell id="bEhqceevYVFsubJ2CwOm-84" value="Select appropriate&lt;div&gt;chart&lt;/div&gt;" style="rhombus;whiteSpace=wrap;html=1;shadow=0;fontFamily=Helvetica;fontSize=12;align=center;strokeWidth=1;spacing=6;spacingTop=-4;" vertex="1" parent="WIyWlLk6GJQsqaUBKTNV-1">
          <mxGeometry x="210" y="890" width="100" height="70" as="geometry" />
        </mxCell>
        <mxCell id="bEhqceevYVFsubJ2CwOm-86" value="Building dashboard" style="rhombus;whiteSpace=wrap;html=1;shadow=0;fontFamily=Helvetica;fontSize=12;align=center;strokeWidth=1;spacing=6;spacingTop=-4;" vertex="1" parent="WIyWlLk6GJQsqaUBKTNV-1">
          <mxGeometry x="463" y="890" width="100" height="70" as="geometry" />
        </mxCell>
        <mxCell id="bEhqceevYVFsubJ2CwOm-92" value="(5)" style="text;html=1;align=center;verticalAlign=middle;resizable=0;points=[];autosize=1;strokeColor=none;fillColor=none;" vertex="1" parent="WIyWlLk6GJQsqaUBKTNV-1">
          <mxGeometry x="720" y="648" width="40" height="30" as="geometry" />
        </mxCell>
        <mxCell id="bEhqceevYVFsubJ2CwOm-93" value="(6)" style="text;html=1;align=center;verticalAlign=middle;resizable=0;points=[];autosize=1;strokeColor=none;fillColor=none;" vertex="1" parent="WIyWlLk6GJQsqaUBKTNV-1">
          <mxGeometry x="720" y="868" width="40" height="30" as="geometry" />
        </mxCell>
        <mxCell id="bEhqceevYVFsubJ2CwOm-94" style="edgeStyle=orthogonalEdgeStyle;rounded=0;orthogonalLoop=1;jettySize=auto;html=1;entryX=0.5;entryY=0;entryDx=0;entryDy=0;dashed=1;" edge="1" parent="WIyWlLk6GJQsqaUBKTNV-1" source="bEhqceevYVFsubJ2CwOm-100" target="bEhqceevYVFsubJ2CwOm-102">
          <mxGeometry relative="1" as="geometry">
            <Array as="points">
              <mxPoint x="383" y="1330" />
              <mxPoint x="206" y="1330" />
            </Array>
          </mxGeometry>
        </mxCell>
        <mxCell id="bEhqceevYVFsubJ2CwOm-95" style="edgeStyle=orthogonalEdgeStyle;rounded=0;orthogonalLoop=1;jettySize=auto;html=1;entryX=0.5;entryY=0;entryDx=0;entryDy=0;dashed=1;" edge="1" parent="WIyWlLk6GJQsqaUBKTNV-1" source="bEhqceevYVFsubJ2CwOm-100" target="bEhqceevYVFsubJ2CwOm-101">
          <mxGeometry relative="1" as="geometry">
            <Array as="points">
              <mxPoint x="383" y="1330" />
              <mxPoint x="90" y="1330" />
            </Array>
          </mxGeometry>
        </mxCell>
        <mxCell id="bEhqceevYVFsubJ2CwOm-96" style="edgeStyle=orthogonalEdgeStyle;rounded=0;orthogonalLoop=1;jettySize=auto;html=1;entryX=0.5;entryY=0;entryDx=0;entryDy=0;dashed=1;" edge="1" parent="WIyWlLk6GJQsqaUBKTNV-1" source="bEhqceevYVFsubJ2CwOm-100" target="bEhqceevYVFsubJ2CwOm-103">
          <mxGeometry relative="1" as="geometry">
            <Array as="points">
              <mxPoint x="383" y="1330" />
              <mxPoint x="320" y="1330" />
            </Array>
          </mxGeometry>
        </mxCell>
        <mxCell id="bEhqceevYVFsubJ2CwOm-97" style="edgeStyle=orthogonalEdgeStyle;rounded=0;orthogonalLoop=1;jettySize=auto;html=1;entryX=0.5;entryY=0;entryDx=0;entryDy=0;dashed=1;" edge="1" parent="WIyWlLk6GJQsqaUBKTNV-1" source="bEhqceevYVFsubJ2CwOm-100" target="bEhqceevYVFsubJ2CwOm-104">
          <mxGeometry relative="1" as="geometry">
            <Array as="points">
              <mxPoint x="383" y="1330" />
              <mxPoint x="443" y="1330" />
            </Array>
          </mxGeometry>
        </mxCell>
        <mxCell id="bEhqceevYVFsubJ2CwOm-98" style="edgeStyle=orthogonalEdgeStyle;rounded=0;orthogonalLoop=1;jettySize=auto;html=1;entryX=0.5;entryY=0;entryDx=0;entryDy=0;dashed=1;" edge="1" parent="WIyWlLk6GJQsqaUBKTNV-1" source="bEhqceevYVFsubJ2CwOm-100" target="bEhqceevYVFsubJ2CwOm-105">
          <mxGeometry relative="1" as="geometry">
            <Array as="points">
              <mxPoint x="383" y="1330" />
              <mxPoint x="580" y="1330" />
            </Array>
          </mxGeometry>
        </mxCell>
        <mxCell id="bEhqceevYVFsubJ2CwOm-119" style="edgeStyle=orthogonalEdgeStyle;rounded=0;orthogonalLoop=1;jettySize=auto;html=1;entryX=1;entryY=0.5;entryDx=0;entryDy=0;strokeWidth=2;fillColor=#a20025;strokeColor=#6F0000;" edge="1" parent="WIyWlLk6GJQsqaUBKTNV-1" source="bEhqceevYVFsubJ2CwOm-100" target="bEhqceevYVFsubJ2CwOm-113">
          <mxGeometry relative="1" as="geometry">
            <Array as="points">
              <mxPoint x="760" y="1270" />
              <mxPoint x="760" y="1510" />
            </Array>
          </mxGeometry>
        </mxCell>
        <mxCell id="bEhqceevYVFsubJ2CwOm-100" value="Model Deployment" style="rounded=1;whiteSpace=wrap;html=1;fontSize=12;glass=0;strokeWidth=1;shadow=0;fillColor=#d80073;fontStyle=1;align=center;fontColor=#ffffff;strokeColor=#A50040;" vertex="1" parent="WIyWlLk6GJQsqaUBKTNV-1">
          <mxGeometry x="293" y="1240" width="180" height="60" as="geometry" />
        </mxCell>
        <mxCell id="bEhqceevYVFsubJ2CwOm-101" value="Deployment&lt;div&gt;Strategies&amp;nbsp;&lt;/div&gt;" style="rhombus;whiteSpace=wrap;html=1;shadow=0;fontFamily=Helvetica;fontSize=12;align=center;strokeWidth=1;spacing=6;spacingTop=-4;" vertex="1" parent="WIyWlLk6GJQsqaUBKTNV-1">
          <mxGeometry x="40" y="1370" width="100" height="70" as="geometry" />
        </mxCell>
        <mxCell id="bEhqceevYVFsubJ2CwOm-102" value="Environment&lt;div&gt;&amp;amp; Framework&lt;/div&gt;" style="rhombus;whiteSpace=wrap;html=1;shadow=0;fontFamily=Helvetica;fontSize=12;align=center;strokeWidth=1;spacing=6;spacingTop=-4;" vertex="1" parent="WIyWlLk6GJQsqaUBKTNV-1">
          <mxGeometry x="156" y="1370" width="100" height="70" as="geometry" />
        </mxCell>
        <mxCell id="bEhqceevYVFsubJ2CwOm-103" value="API Model Acccessing" style="rhombus;whiteSpace=wrap;html=1;shadow=0;fontFamily=Helvetica;fontSize=12;align=center;strokeWidth=1;spacing=6;spacingTop=-4;" vertex="1" parent="WIyWlLk6GJQsqaUBKTNV-1">
          <mxGeometry x="270" y="1370" width="100" height="70" as="geometry" />
        </mxCell>
        <mxCell id="bEhqceevYVFsubJ2CwOm-104" value="Model Monitoring" style="rhombus;whiteSpace=wrap;html=1;shadow=0;fontFamily=Helvetica;fontSize=12;align=center;strokeWidth=1;spacing=6;spacingTop=-4;" vertex="1" parent="WIyWlLk6GJQsqaUBKTNV-1">
          <mxGeometry x="393" y="1370" width="100" height="70" as="geometry" />
        </mxCell>
        <mxCell id="bEhqceevYVFsubJ2CwOm-105" value="Model Retraing&amp;nbsp;&lt;div&gt;and Update&lt;/div&gt;" style="rhombus;whiteSpace=wrap;html=1;shadow=0;fontFamily=Helvetica;fontSize=12;align=center;strokeWidth=1;spacing=6;spacingTop=-4;" vertex="1" parent="WIyWlLk6GJQsqaUBKTNV-1">
          <mxGeometry x="520" y="1370" width="120" height="70" as="geometry" />
        </mxCell>
        <mxCell id="bEhqceevYVFsubJ2CwOm-108" style="edgeStyle=orthogonalEdgeStyle;rounded=0;orthogonalLoop=1;jettySize=auto;html=1;entryX=0.5;entryY=0;entryDx=0;entryDy=0;dashed=1;" edge="1" parent="WIyWlLk6GJQsqaUBKTNV-1" source="bEhqceevYVFsubJ2CwOm-113" target="bEhqceevYVFsubJ2CwOm-115">
          <mxGeometry relative="1" as="geometry">
            <Array as="points">
              <mxPoint x="383" y="1570" />
              <mxPoint x="206" y="1570" />
            </Array>
          </mxGeometry>
        </mxCell>
        <mxCell id="bEhqceevYVFsubJ2CwOm-109" style="edgeStyle=orthogonalEdgeStyle;rounded=0;orthogonalLoop=1;jettySize=auto;html=1;entryX=0.5;entryY=0;entryDx=0;entryDy=0;dashed=1;" edge="1" parent="WIyWlLk6GJQsqaUBKTNV-1" source="bEhqceevYVFsubJ2CwOm-113" target="bEhqceevYVFsubJ2CwOm-114">
          <mxGeometry relative="1" as="geometry">
            <Array as="points">
              <mxPoint x="383" y="1570" />
              <mxPoint x="90" y="1570" />
            </Array>
          </mxGeometry>
        </mxCell>
        <mxCell id="bEhqceevYVFsubJ2CwOm-110" style="edgeStyle=orthogonalEdgeStyle;rounded=0;orthogonalLoop=1;jettySize=auto;html=1;entryX=0.5;entryY=0;entryDx=0;entryDy=0;dashed=1;" edge="1" parent="WIyWlLk6GJQsqaUBKTNV-1" source="bEhqceevYVFsubJ2CwOm-113" target="bEhqceevYVFsubJ2CwOm-116">
          <mxGeometry relative="1" as="geometry">
            <Array as="points">
              <mxPoint x="383" y="1570" />
              <mxPoint x="320" y="1570" />
            </Array>
          </mxGeometry>
        </mxCell>
        <mxCell id="bEhqceevYVFsubJ2CwOm-111" style="edgeStyle=orthogonalEdgeStyle;rounded=0;orthogonalLoop=1;jettySize=auto;html=1;entryX=0.5;entryY=0;entryDx=0;entryDy=0;dashed=1;" edge="1" parent="WIyWlLk6GJQsqaUBKTNV-1" source="bEhqceevYVFsubJ2CwOm-113" target="bEhqceevYVFsubJ2CwOm-117">
          <mxGeometry relative="1" as="geometry">
            <Array as="points">
              <mxPoint x="383" y="1570" />
              <mxPoint x="443" y="1570" />
            </Array>
          </mxGeometry>
        </mxCell>
        <mxCell id="bEhqceevYVFsubJ2CwOm-112" style="edgeStyle=orthogonalEdgeStyle;rounded=0;orthogonalLoop=1;jettySize=auto;html=1;entryX=0.5;entryY=0;entryDx=0;entryDy=0;dashed=1;" edge="1" parent="WIyWlLk6GJQsqaUBKTNV-1" source="bEhqceevYVFsubJ2CwOm-113" target="bEhqceevYVFsubJ2CwOm-118">
          <mxGeometry relative="1" as="geometry">
            <Array as="points">
              <mxPoint x="383" y="1570" />
              <mxPoint x="580" y="1570" />
            </Array>
          </mxGeometry>
        </mxCell>
        <mxCell id="bEhqceevYVFsubJ2CwOm-121" style="edgeStyle=orthogonalEdgeStyle;rounded=0;orthogonalLoop=1;jettySize=auto;html=1;entryX=0.5;entryY=0;entryDx=0;entryDy=0;dashed=1;" edge="1" parent="WIyWlLk6GJQsqaUBKTNV-1" source="bEhqceevYVFsubJ2CwOm-113" target="bEhqceevYVFsubJ2CwOm-120">
          <mxGeometry relative="1" as="geometry">
            <Array as="points">
              <mxPoint x="383" y="1570" />
              <mxPoint x="720" y="1570" />
            </Array>
          </mxGeometry>
        </mxCell>
        <mxCell id="bEhqceevYVFsubJ2CwOm-113" value="Report Documentation" style="rounded=1;whiteSpace=wrap;html=1;fontSize=12;glass=0;strokeWidth=1;shadow=0;fillColor=#0050ef;fontStyle=1;align=center;fontColor=#ffffff;strokeColor=#001DBC;" vertex="1" parent="WIyWlLk6GJQsqaUBKTNV-1">
          <mxGeometry x="293" y="1480" width="180" height="60" as="geometry" />
        </mxCell>
        <mxCell id="bEhqceevYVFsubJ2CwOm-114" value="Report format" style="rhombus;whiteSpace=wrap;html=1;shadow=0;fontFamily=Helvetica;fontSize=12;align=center;strokeWidth=1;spacing=6;spacingTop=-4;" vertex="1" parent="WIyWlLk6GJQsqaUBKTNV-1">
          <mxGeometry x="40" y="1610" width="100" height="70" as="geometry" />
        </mxCell>
        <mxCell id="bEhqceevYVFsubJ2CwOm-115" value="Table of Contents" style="rhombus;whiteSpace=wrap;html=1;shadow=0;fontFamily=Helvetica;fontSize=12;align=center;strokeWidth=1;spacing=6;spacingTop=-4;" vertex="1" parent="WIyWlLk6GJQsqaUBKTNV-1">
          <mxGeometry x="156" y="1610" width="100" height="70" as="geometry" />
        </mxCell>
        <mxCell id="bEhqceevYVFsubJ2CwOm-116" value="Introduction&lt;div&gt;and Literatures&lt;/div&gt;" style="rhombus;whiteSpace=wrap;html=1;shadow=0;fontFamily=Helvetica;fontSize=12;align=center;strokeWidth=1;spacing=6;spacingTop=-4;" vertex="1" parent="WIyWlLk6GJQsqaUBKTNV-1">
          <mxGeometry x="270" y="1610" width="100" height="70" as="geometry" />
        </mxCell>
        <mxCell id="bEhqceevYVFsubJ2CwOm-117" value="Methodology" style="rhombus;whiteSpace=wrap;html=1;shadow=0;fontFamily=Helvetica;fontSize=12;align=center;strokeWidth=1;spacing=6;spacingTop=-4;" vertex="1" parent="WIyWlLk6GJQsqaUBKTNV-1">
          <mxGeometry x="393" y="1610" width="100" height="70" as="geometry" />
        </mxCell>
        <mxCell id="bEhqceevYVFsubJ2CwOm-118" value="Result and&amp;nbsp;&lt;div&gt;Analysis&lt;/div&gt;" style="rhombus;whiteSpace=wrap;html=1;shadow=0;fontFamily=Helvetica;fontSize=12;align=center;strokeWidth=1;spacing=6;spacingTop=-4;" vertex="1" parent="WIyWlLk6GJQsqaUBKTNV-1">
          <mxGeometry x="520" y="1610" width="120" height="70" as="geometry" />
        </mxCell>
        <mxCell id="bEhqceevYVFsubJ2CwOm-120" value="Conclusion &amp;amp;&amp;nbsp;&lt;div&gt;&lt;span style=&quot;background-color: initial;&quot;&gt;Recommendation&lt;/span&gt;&lt;/div&gt;" style="rhombus;whiteSpace=wrap;html=1;shadow=0;fontFamily=Helvetica;fontSize=12;align=center;strokeWidth=1;spacing=6;spacingTop=-4;" vertex="1" parent="WIyWlLk6GJQsqaUBKTNV-1">
          <mxGeometry x="660" y="1610" width="120" height="70" as="geometry" />
        </mxCell>
        <mxCell id="bEhqceevYVFsubJ2CwOm-122" value="(7)" style="text;html=1;align=center;verticalAlign=middle;resizable=0;points=[];autosize=1;strokeColor=none;fillColor=none;" vertex="1" parent="WIyWlLk6GJQsqaUBKTNV-1">
          <mxGeometry x="720" y="1108" width="40" height="30" as="geometry" />
        </mxCell>
        <mxCell id="bEhqceevYVFsubJ2CwOm-123" value="(8)" style="text;html=1;align=center;verticalAlign=middle;resizable=0;points=[];autosize=1;strokeColor=none;fillColor=none;" vertex="1" parent="WIyWlLk6GJQsqaUBKTNV-1">
          <mxGeometry x="720" y="1368" width="40" height="30" as="geometry" />
        </mxCell>
        <mxCell id="bEhqceevYVFsubJ2CwOm-124" value="Topic reseach" style="rhombus;whiteSpace=wrap;html=1;shadow=0;fontFamily=Helvetica;fontSize=12;align=center;strokeWidth=1;spacing=6;spacingTop=-4;" vertex="1" parent="WIyWlLk6GJQsqaUBKTNV-1">
          <mxGeometry x="30" y="160" width="100" height="80" as="geometry" />
        </mxCell>
      </root>
    </mxGraphModel>
  </diagram>
</mxfile>
